<svg id="Layer_1" data-name="Layer 1" xmlns="http://www.w3.org/2000/svg" width="552.59" height="492.44" viewBox="0 0 552.59 492.44"><defs><style>.cls-1{fill:#eebf6f;}.cls-2{fill:none;stroke:#000;stroke-miterlimit:10;stroke-width:3px;}</style></defs><path class="cls-1" d="M385.06,106.2a50.51,50.51,0,1,1-45.23-84.08,109.27,109.27,0,0,1,45.23,84.08Z"/><path d="M21.87,438.62c0,4.86.09,10.62,2.34,15,2.7,5.49,8.1,7.74,13.68,7.74,4.86,0,10.71-2.34,13.23-7,2.34-4.32,2.34-10.71,2.34-15.57V410.9c0-2.61-.9-2.88-3.06-4-1.26-.63-2.34-1.26-2.34-2.88,0-2.88,3.06-3,5.31-3H61.2c2.25,0,5.31.09,5.31,3,0,1.62-1.08,2.25-2.34,2.88-2.16,1.08-3.06,1.35-3.06,4v26.55c0,7.56-.18,16.47-5.31,22.59-5.31,6.3-14.58,8.28-22.32,8.28-6.48,0-15.48-1.71-20.88-6.84-6.3-6-7.11-14.67-7.11-22.86v-26.1c0-1.89.36-4-1.62-4.95l-1-.54c-1.17-.72-2.16-1.26-2.16-2.88,0-2.43,2.43-3.06,4.41-3.06H22.5c2.07,0,4.86.36,4.86,3.06a2.71,2.71,0,0,1-2.16,2.7c-3.33,1.44-3,2-3.33,5.76Z"/><path d="M91.17,454.82a18.13,18.13,0,0,0,.45,4.95,3.89,3.89,0,0,0,2,1.62c1.17.63,2.16,1.26,2.16,2.7,0,2.88-2.7,2.88-4.86,2.88H76.77c-2.16,0-4.86,0-4.86-2.88,0-1.44,1-2.07,2.16-2.7a3.89,3.89,0,0,0,2-1.62,18.13,18.13,0,0,0,.45-4.95V438.35c0,1.26,0-.63-.54-2.43-.54-2-1.35-2.43-3.24-3.33-1.35-.63-2.43-1.35-2.43-3,0-2.25,2.7-3.33,4.41-4.05,1.89-.72,7.47-2.61,9.45-2.61,4,0,4.68,6.39,5.13,9.36,2.16-4.41,6.57-9.36,11.79-9.36a6.5,6.5,0,0,1,6.75,6.66c0,2.79-1.62,6.21-4.77,6.21-2.34,0-4.14-1.17-6-1.17s-3.33,1.71-4.14,3.33c-1.53,2.79-1.71,6.57-1.71,9.72Z"/><path d="M127.89,427.64A19.89,19.89,0,0,1,140.58,423c12.69,0,20.43,9,20.43,21.51,0,15.48-12.42,23.85-27,23.85-4.95,0-11-1.17-15-4.05-5.22-3.78-5.76-9.27-5.76-15.21V417.38a56.44,56.44,0,0,0-.27-6.75c-.36-1.89-1.08-2.34-2.61-3.24-1.08-.63-2.25-1.08-2.25-2.52,0-2.43,3.78-3,5.49-3.42,2.7-.9,7.83-2.61,10.62-2.61,4.23,0,3.69,6.12,3.69,8.82Zm.27,20.43c0,5.49.45,14,7.83,14,7.74,0,9.45-9.63,9.45-15.66,0-5.4-1.53-16.65-8.82-16.65a8.29,8.29,0,0,0-6.84,3.69c-1.53,2.25-1.62,4.95-1.62,7.56Z"/><path d="M210.24,454.64c0,1.26-.09,3.78.45,4.95a3.66,3.66,0,0,0,2,1.71c1.26.63,2.25,1.26,2.25,2.79,0,2.88-2.7,2.88-4.86,2.88h-9c-4.59,0-4.59-1.53-4.86-5.58-3.06,5-8.46,6.93-13.95,6.93-8.46,0-16.2-4.68-16.2-13.95,0-12.78,16.2-15.93,26.1-15.93h3.06c0-5.4-2.61-9.45-8.37-9.45-5.49,0-6.3,5.76-12,5.76-2.61,0-5.58-1.17-5.58-4.32,0-6.3,14.22-7.47,18.63-7.47,5,0,10.62.81,15,3.33,5.58,3.24,7.29,7.83,7.29,14.13ZM194,444.11c-6.39,0-12.87,3.15-12.87,10.35,0,3.42,2,6.48,5.67,6.48,3,0,5.31-1.89,6.93-4.32,2-3.15,1.89-6,1.89-9.63v-2.88Z"/><path d="M266.49,455.54a17.07,17.07,0,0,0,.35,4.77,5.76,5.76,0,0,0,1.71,1.53,2.65,2.65,0,0,1,1.62,2.34c0,2.07-1.62,2.79-3.42,2.79h-15.2c-1.8,0-3.42-.72-3.42-2.79a2.66,2.66,0,0,1,1.62-2.34,5.64,5.64,0,0,0,1.71-1.53,17.08,17.08,0,0,0,.36-4.77V441.05c0-4.95-.18-10.53-6.66-10.53a7.63,7.63,0,0,0-6.93,3.69c-1.35,2.16-1.35,5-1.35,7.38v14a17.08,17.08,0,0,0,.36,4.77,5.64,5.64,0,0,0,1.71,1.53,2.66,2.66,0,0,1,1.62,2.34c0,2.07-1.62,2.79-3.42,2.79H221.94c-1.8,0-3.42-.72-3.42-2.79a2.66,2.66,0,0,1,1.62-2.34,5.64,5.64,0,0,0,1.71-1.53,17.08,17.08,0,0,0,.36-4.77V438.35c0-3.15.36-4.77-2.7-6.3a2.55,2.55,0,0,1-1.89-2.43c0-3.24,11.07-6.66,13.86-6.66,3.06,0,3.69,4.14,4.05,6.48C239.13,425,244,423,249.84,423c4.59,0,9.54,1.35,12.78,4.77s3.87,8.55,3.87,13Z"/><path d="M324.53,412.61c0-3.24.27-4.86-3.6-4.86-10.26,0-10.43,7.47-14.57,7.47a3.17,3.17,0,0,1-3.42-3.42,14.8,14.8,0,0,1,.45-2.88c.27-1.62.9-6.21,2.25-7.29.81-.63,3-.54,4.05-.54h46.07c1.08,0,3.24-.09,4.05.54,1.35,1.08,2,5.67,2.25,7.29a14.8,14.8,0,0,1,.45,2.88,3.17,3.17,0,0,1-3.42,3.42c-4.14,0-4.32-7.47-14.58-7.47-3.87,0-3.6,1.62-3.6,4.86v42.93c0,1.89-.36,4,1.62,4.95l1,.54c1.17.72,2.16,1.26,2.16,2.88,0,2.43-2.43,3.06-4.41,3.06h-17.1c-2,0-4.41-.63-4.41-3.06,0-1.62,1-2.16,2.16-2.88l1-.54c2-1,1.61-3.06,1.61-4.95Z"/><path d="M414.08,455.54a17.08,17.08,0,0,0,.36,4.77,5.64,5.64,0,0,0,1.71,1.53,2.66,2.66,0,0,1,1.62,2.34c0,2.07-1.62,2.79-3.42,2.79H399.14c-1.8,0-3.42-.72-3.42-2.79a2.66,2.66,0,0,1,1.62-2.34,5.64,5.64,0,0,0,1.71-1.53,17.08,17.08,0,0,0,.36-4.77V440.6c0-5.13-.81-10.35-7.29-10.35a8.12,8.12,0,0,0-6,2.61c-1.71,1.89-2,3.78-2,6.3v16.38a17.07,17.07,0,0,0,.35,4.77,5.64,5.64,0,0,0,1.71,1.53,2.66,2.66,0,0,1,1.62,2.34c0,2.07-1.62,2.79-3.42,2.79h-15.2c-1.8,0-3.42-.72-3.42-2.79a2.66,2.66,0,0,1,1.62-2.34,5.64,5.64,0,0,0,1.71-1.53,17.08,17.08,0,0,0,.36-4.77V417.38a56.44,56.44,0,0,0-.27-6.75c-.36-1.89-1.08-2.34-2.61-3.24-1.08-.63-2.25-1.08-2.25-2.52,0-2.43,3.78-3,5.49-3.42,2.69-.9,7.82-2.61,10.61-2.61,4.24,0,3.7,6.12,3.7,8.82v19.62A22.89,22.89,0,0,1,397.25,423c4.59,0,9.54,1.44,12.78,4.86,3.51,3.69,4.05,8.46,4.05,13.41Z"/><path d="M442.16,454.82a18.13,18.13,0,0,0,.45,4.95,3.89,3.89,0,0,0,2,1.62c1.17.63,2.16,1.26,2.16,2.7,0,2.88-2.7,2.88-4.86,2.88H427.76c-2.16,0-4.86,0-4.86-2.88,0-1.44,1-2.07,2.16-2.7a3.89,3.89,0,0,0,2-1.62,18.13,18.13,0,0,0,.45-4.95V438.35c0,1.26,0-.63-.54-2.43-.54-2-1.35-2.43-3.24-3.33-1.35-.63-2.43-1.35-2.43-3,0-2.25,2.7-3.33,4.41-4.05,1.89-.72,7.47-2.61,9.45-2.61,4.05,0,4.68,6.39,5.13,9.36,2.16-4.41,6.57-9.36,11.79-9.36a6.5,6.5,0,0,1,6.75,6.66c0,2.79-1.62,6.21-4.77,6.21-2.34,0-4.14-1.17-6-1.17s-3.33,1.71-4.14,3.33c-1.53,2.79-1.71,6.57-1.71,9.72Z"/><path d="M466,441.5a56.44,56.44,0,0,0-.27-6.75c-.36-1.89-1.08-2.34-2.61-3.24-1.08-.63-2.25-1.08-2.25-2.52,0-2.43,3.78-3,5.49-3.42,2.7-.9,7.83-2.61,10.62-2.61,4.23,0,3.69,6.12,3.69,8.82v23.76a17.08,17.08,0,0,0,.36,4.77,5.64,5.64,0,0,0,1.71,1.53,2.66,2.66,0,0,1,1.62,2.34c0,2.07-1.62,2.79-3.42,2.79H465.74c-1.8,0-3.42-.72-3.42-2.79a2.66,2.66,0,0,1,1.62-2.34,5.64,5.64,0,0,0,1.71-1.53,17.08,17.08,0,0,0,.36-4.77Zm-2.7-30.42c0-4.77,4.41-7.56,8.73-7.56s8.82,2.34,8.82,7.2c0,4.68-4.95,7.11-9,7.11S463.31,415.49,463.31,411.08Z"/><path d="M508.76,454.82a18.13,18.13,0,0,0,.45,4.95,3.89,3.89,0,0,0,2,1.62c1.17.63,2.16,1.26,2.16,2.7,0,2.88-2.7,2.88-4.86,2.88H494.36c-2.16,0-4.86,0-4.86-2.88,0-1.44,1-2.07,2.16-2.7a3.89,3.89,0,0,0,2-1.62,18.13,18.13,0,0,0,.45-4.95V430.61h-1.17c-2.88,0-5.13,0-5.13-3.51a3.7,3.7,0,0,1,.81-2.34c1.08-1.35,2.34-1.08,3.87-1.08h1.71c-.09-5-.09-11.16,2.25-16.11,2.7-5.94,8.37-8.73,14.76-8.73,3.69,0,9.45,1.62,9.45,6.12a5,5,0,0,1-4.95,5.22c-2.7,0-4.86-2.61-5.58-2.61-1.44,0-1.35,4.32-1.35,5v11.07h2.61c2.7,0,6.57-.54,6.57,3.33,0,4.05-3.24,3.6-6.3,3.6h-2.88Z"/><path d="M540.17,453.74c0,4.05.45,6.3,5.13,6.3,2.7,0,6.12-.36,6.12,3.51,0,3.24-3.69,3.42-6,3.42H533.06c-5.67,0-7.56-.81-7.56-6.93V430.79h-1.8c-2.61,0-5.4,0-5.4-3.51,0-2.34,1.62-2.88,3.6-3.24,2.43-.36,4.59-.63,6-2.79,1.17-1.89,2.16-5.94,2.52-8.19.63-3.33,1.35-4.5,4.95-4.5,4.14,0,4.5.54,4.5,4.32v10.8h5.31c2.7,0,5.58.09,5.58,3.6,0,3.15-2.88,3.51-5.4,3.51h-5.22Z"/><path class="cls-2" d="M385.15,110.36V271c0,.63,0,1.27,0,1.9q0,3.79-.39,7.53a107.36,107.36,0,0,1-8.65,33.94q-1.51,3.46-3.27,6.8a106.71,106.71,0,0,1-8.34,13.46,109.86,109.86,0,0,1-34.33,30.87,108.33,108.33,0,0,1-120.2-8.36,109.3,109.3,0,0,1-17.18-16.54,109.28,109.28,0,0,1-14-21.49c-1.16-2.31-2.23-4.68-3.21-7.08a107.59,107.59,0,0,1-7.74-32.45c-.2-2.56-.32-5.15-.33-7.76,0-.27,0-.55,0-.82V110.36c0-59.87,49-108.86,108.86-108.86A109.19,109.19,0,0,1,385.06,106.2C385.12,107.58,385.15,109,385.15,110.36Z"/><path d="M61.08,331c0,3.09.36,3.3,4.44,3.33,1.8,0,3-.09,4.26-1.5.48-.54,1.17-1.44,2-1.44a1.06,1.06,0,0,1,1.08,1,9.56,9.56,0,0,1-.66,2.73c-.39,1.26-.63,1.38-2,1.38H55.5c-.66,0-1.47-.21-1.47-1,0-.54.33-.72.72-1l.33-.18c.66-.33.54-1,.54-1.65V318.33c0-.63.12-1.32-.54-1.65l-.33-.18c-.39-.24-.72-.42-.72-1,0-.81.81-1,1.47-1h14c.48,0,1.29-.06,1.65.36a6.88,6.88,0,0,1,.51,2.85c0,.69-.3,1.29-1.08,1.29s-1-.42-1.38-.9a3.33,3.33,0,0,0-1.89-1.23,16,16,0,0,0-3-.24,9.62,9.62,0,0,0-2.49.24,1,1,0,0,0-.75.9v5.58h4.53c2.13,0,1.8-1.11,2.82-1.11s1,1.32,1,2.07.15,2.52-1,2.52c-1,0-.78-1.05-2.82-1.05H61.08Z"/><path d="M86.19,322.86a11.68,11.68,0,0,1,4.41,1.83,5.79,5.79,0,0,1,2.16,4.47,7.12,7.12,0,0,1-2.94,5.73,10.84,10.84,0,0,1-6.69,2,13.87,13.87,0,0,1-5.73-1.14c-1.5-.72-3.57-2.34-3.57-4.14A1.57,1.57,0,0,1,75.3,330,2,2,0,0,1,77,331.11a7,7,0,0,0,2,2.37,7.21,7.21,0,0,0,3.84,1.08c2.07,0,4.62-1.08,4.62-3.48a2.49,2.49,0,0,0-1.5-2.34,18.19,18.19,0,0,0-3.84-1.08A13.78,13.78,0,0,1,77.28,326a5.78,5.78,0,0,1-2.64-4.8,6.92,6.92,0,0,1,2.88-5.43,10.15,10.15,0,0,1,6-1.68,15,15,0,0,1,6.63,1.56,1.54,1.54,0,0,1,.81.87,11.59,11.59,0,0,1,.21,2.7c0,.72-.36,1.23-1.11,1.23-1.62,0-1.38-4.26-6.3-4.26-1.71,0-3.75,1-3.75,2.91,0,2.16,2.07,2.76,3.78,3.18Z"/><path d="M101,318.36c0-1.08.09-1.62-1.2-1.62-3.42,0-3.48,2.49-4.86,2.49a1.06,1.06,0,0,1-1.14-1.14,4.93,4.93,0,0,1,.15-1c.09-.54.3-2.07.75-2.43a2.85,2.85,0,0,1,1.35-.18h15.36a2.85,2.85,0,0,1,1.35.18c.45.36.66,1.89.75,2.43a4.93,4.93,0,0,1,.15,1,1.06,1.06,0,0,1-1.14,1.14c-1.38,0-1.44-2.49-4.86-2.49-1.29,0-1.2.54-1.2,1.62v14.31c0,.63-.12,1.32.54,1.65l.33.18c.39.24.72.42.72,1,0,.81-.81,1-1.47,1h-5.7c-.66,0-1.47-.21-1.47-1,0-.54.33-.72.72-1l.33-.18c.66-.33.54-1,.54-1.65Z"/><path d="M124.77,314.52c3.15,0,6,.33,8.61,2.37a10.29,10.29,0,0,1,3.93,8.46,11.45,11.45,0,0,1-3,8.1c-2.28,2.28-5.34,3-8.49,3H116.1c-.66,0-1.47-.21-1.47-1,0-.54.33-.72.72-1l.33-.18c.66-.33.54-1,.54-1.65V318.33c0-.63.12-1.32-.54-1.65l-.33-.18c-.39-.24-.72-.42-.72-1,0-.81.81-1,1.47-1Zm-3.09,16.92c0,2.1,0,2.91,2.31,2.91,5,0,7.47-4,7.47-8.67s-2.49-9-7.65-9c-2.13,0-2.13.69-2.13,2.58Z"/><path d="M140.82,334.53a2.65,2.65,0,0,1,2.88-2.43,2.67,2.67,0,0,1,2.82,2.46,2.61,2.61,0,0,1-2.79,2.37C142.35,336.93,140.82,336.06,140.82,334.53Z"/><path d="M418,330.6a3.26,3.26,0,0,1-1.92-.3,2.12,2.12,0,0,1-.57-1.62c0-1.59,1-1.71,2.25-1.71h3.81c1.47,0,2.52,0,2.52,1.77s-.87,1.86-2.37,1.86Z"/><path d="M428.31,337.38c-.84,0-1.77-.06-1.77-1.14,0-1.8,2.64-4.8,3.87-6.06l2.67-2.7c1.89-1.89,4.35-4.47,4.35-7.29a2.91,2.91,0,0,0-2.91-3.12c-1.5,0-3.3,1.23-3.3,2.85a1.92,1.92,0,0,0,.33,1.11,2.13,2.13,0,0,1,.39,1c0,1.14-1.32,1.56-2.25,1.56a2.57,2.57,0,0,1-2.73-2.73,5.32,5.32,0,0,1,2.61-4.38,10.31,10.31,0,0,1,5.79-1.62,9.69,9.69,0,0,1,4.92,1.17,5.34,5.34,0,0,1,2.79,4.68c0,3.12-2.4,5.55-4.59,7.47L433,333.63h4.53c1.65,0,2.46,0,3.78-1.11a2.5,2.5,0,0,1,1.32-.72.83.83,0,0,1,.81.81,3.54,3.54,0,0,1-.27,1.11,19.22,19.22,0,0,0-.63,2.25c-.3,1.41-.81,1.41-2.1,1.41Z"/><path d="M446.31,326.13a13.18,13.18,0,0,1,2.1-7.44,8.39,8.39,0,0,1,7-3.81,8.24,8.24,0,0,1,6.9,3.72,13.46,13.46,0,0,1,2.19,7.74,14.16,14.16,0,0,1-2,7.62,8.42,8.42,0,0,1-7,3.87C449,337.83,446.31,331.68,446.31,326.13Zm12.45.06c0-2.25-.12-9.24-3.39-9.24-1.83,0-2.64,2.58-3,4a29.23,29.23,0,0,0-.39,5.37c0,2.37,0,9.39,3.45,9.39C458.7,335.73,458.76,328.35,458.76,326.19Z"/><path d="M469.11,337.38c-.84,0-1.77-.06-1.77-1.14,0-1.8,2.64-4.8,3.87-6.06l2.67-2.7c1.89-1.89,4.35-4.47,4.35-7.29a2.92,2.92,0,0,0-2.91-3.12c-1.5,0-3.3,1.23-3.3,2.85a1.92,1.92,0,0,0,.33,1.11,2.13,2.13,0,0,1,.39,1c0,1.14-1.32,1.56-2.25,1.56a2.57,2.57,0,0,1-2.73-2.73,5.32,5.32,0,0,1,2.61-4.38,10.31,10.31,0,0,1,5.79-1.62,9.69,9.69,0,0,1,4.92,1.17,5.34,5.34,0,0,1,2.79,4.68c0,3.12-2.41,5.55-4.59,7.47l-5.52,5.43h4.53c1.65,0,2.46,0,3.78-1.11a2.51,2.51,0,0,1,1.31-.72.84.84,0,0,1,.82.81,3.55,3.55,0,0,1-.28,1.11c-.26.69-.44,1.53-.63,2.25-.29,1.41-.8,1.41-2.09,1.41Z"/><path d="M489.51,337.38c-.84,0-1.77-.06-1.77-1.14,0-1.8,2.64-4.8,3.87-6.06l2.67-2.7c1.89-1.89,4.35-4.47,4.35-7.29a2.91,2.91,0,0,0-2.91-3.12c-1.5,0-3.3,1.23-3.3,2.85a1.92,1.92,0,0,0,.33,1.11,2.13,2.13,0,0,1,.39,1c0,1.14-1.32,1.56-2.25,1.56a2.57,2.57,0,0,1-2.73-2.73,5.32,5.32,0,0,1,2.61-4.38,10.31,10.31,0,0,1,5.79-1.62,9.69,9.69,0,0,1,4.92,1.17,5.34,5.34,0,0,1,2.79,4.68c0,3.12-2.4,5.55-4.59,7.47l-5.52,5.43h4.53c1.65,0,2.46,0,3.78-1.11a2.5,2.5,0,0,1,1.32-.72.83.83,0,0,1,.81.81,3.54,3.54,0,0,1-.27,1.11,19.22,19.22,0,0,0-.63,2.25c-.3,1.41-.81,1.41-2.1,1.41Z"/><path d="M509.82,330.6a3.26,3.26,0,0,1-1.92-.3,2.12,2.12,0,0,1-.57-1.62c0-1.59,1-1.71,2.25-1.71h3.81c1.47,0,2.52,0,2.52,1.77s-.87,1.86-2.37,1.86Z"/><path d="M372.76,266.85a3.75,3.75,0,1,0-5,5.59,32.34,32.34,0,0,0,17,7.94q.34-3.74.39-7.53A24.94,24.94,0,0,1,372.76,266.85Zm-12.1-22.42a3.75,3.75,0,0,0-3.75,3.75,25.06,25.06,0,0,1-50.11,0,3.75,3.75,0,0,0-7.5,0,25.06,25.06,0,0,1-50.12,0,3.75,3.75,0,0,0-7.5,0,25.06,25.06,0,0,1-50.11,0,3.75,3.75,0,0,0-7.5,0,25.1,25.1,0,0,1-16.63,23.59c0,2.61.13,5.2.33,7.76a32.71,32.71,0,0,0,20-16.19,32.55,32.55,0,0,0,57.61,0,32.56,32.56,0,0,0,57.62,0,32.55,32.55,0,0,0,61.36-15.16A3.75,3.75,0,0,0,360.66,244.43Zm3.75,48.72a3.75,3.75,0,0,0-7.5,0,25.06,25.06,0,1,1-50.11,0,3.75,3.75,0,0,0-7.5,0,25.06,25.06,0,0,1-50.12,0,3.75,3.75,0,0,0-7.5,0,25.06,25.06,0,1,1-50.11,0,3.75,3.75,0,0,0-7.5,0A25,25,0,0,1,175.51,312c1,2.4,2.05,4.77,3.21,7.08a32.88,32.88,0,0,0,9.1-10.75,32.54,32.54,0,0,0,57.61,0,32.55,32.55,0,0,0,57.62,0,32.54,32.54,0,0,0,57.61,0,32.82,32.82,0,0,0,12.15,12.81q1.76-3.33,3.27-6.8A25,25,0,0,1,364.41,293.15ZM191.57,332.94a3.75,3.75,0,0,0-6.41-2.64,107.37,107.37,0,0,0,7.6,10.25A24.59,24.59,0,0,1,191.57,332.94Zm172.84,0a3.75,3.75,0,0,0-7.5,0,25.06,25.06,0,1,1-50.11,0,3.75,3.75,0,0,0-7.5,0,25.06,25.06,0,1,1-50.12,0,3.75,3.75,0,0,0-7.5,0,25,25,0,0,1-31.74,24.15,107.17,107.17,0,0,0,11.87,8,32.64,32.64,0,0,0,23.62-17,32.55,32.55,0,0,0,57.62,0,32.57,32.57,0,0,0,27.09,17.35,109.86,109.86,0,0,0,34.33-30.87C364.43,334,364.41,333.49,364.41,332.94Z"/></svg>