<svg id="Layer_1" data-name="Layer 1" xmlns="http://www.w3.org/2000/svg" width="637.76" height="113.4" viewBox="0 0 637.76 113.4"><defs><style>.cls-1{isolation:isolate;}</style></defs><path d="M21.2,48.2c0,4.9.1,10.6,2.3,15,2.7,5.5,8.1,7.7,13.7,7.7,4.9,0,10.7-2.3,13.2-7,2.3-4.3,2.3-10.7,2.3-15.6V20.4c0-2.6-.9-2.9-3.1-4-1.3-.6-2.3-1.3-2.3-2.9,0-2.9,3.1-3,5.3-3h7.8c2.2,0,5.3.1,5.3,3,0,1.6-1.1,2.2-2.3,2.9-2.2,1.1-3.1,1.4-3.1,4V46.9c0,7.6-.2,16.5-5.3,22.6-5.3,6.3-14.6,8.3-22.3,8.3-6.5,0-15.5-1.7-20.9-6.8C5.5,65,4.7,56.3,4.7,48.1V22c0-1.9.4-4-1.6-5l-1-.5C1,15.9,0,15.3,0,13.7c0-2.4,2.4-3.1,4.4-3.1H21.8c2.1,0,4.9.4,4.9,3.1a2.77,2.77,0,0,1-2.2,2.7c-3.3,1.4-3,2-3.3,5.8Z" transform="translate(0 -8.6)"/><path d="M90.5,64.4a21.11,21.11,0,0,0,.4,5,3.89,3.89,0,0,0,2,1.6c1.2.6,2.2,1.3,2.2,2.7,0,2.9-2.7,2.9-4.9,2.9H76.1c-2.2,0-4.9,0-4.9-2.9,0-1.4,1-2.1,2.2-2.7a4.47,4.47,0,0,0,2-1.6,16.66,16.66,0,0,0,.4-5V47.9c0,1.3,0-.6-.5-2.4-.5-2-1.3-2.4-3.2-3.3-1.3-.6-2.4-1.4-2.4-3,0-2.2,2.7-3.3,4.4-4,1.9-.7,7.5-2.6,9.4-2.6,4,0,4.7,6.4,5.1,9.4,2.2-4.4,6.6-9.4,11.8-9.4a6.47,6.47,0,0,1,6.7,6.2v.4c0,2.8-1.6,6.2-4.8,6.2-2.3,0-4.1-1.2-6-1.2s-3.3,1.7-4.1,3.3c-1.5,2.8-1.7,6.6-1.7,9.7Z" transform="translate(0 -8.6)"/><path d="M127.2,37.2a19.63,19.63,0,0,1,12.7-4.6c12.7,0,20.4,9,20.4,21.5,0,15.5-12.4,23.9-27,23.9-4.9,0-11-1.2-15-4-5.2-3.8-5.8-9.3-5.8-15.2V27.1a51.58,51.58,0,0,0-.3-6.8c-.4-1.9-1.1-2.3-2.6-3.2-1.1-.6-2.2-1.1-2.2-2.5,0-2.4,3.8-3,5.5-3.4,2.7-.9,7.8-2.6,10.6-2.6,4.2,0,3.7,6.1,3.7,8.8Zm.2,20.4c0,5.5.4,14,7.8,14,7.7,0,9.4-9.6,9.4-15.7,0-5.4-1.5-16.6-8.8-16.6A8.06,8.06,0,0,0,129,43c-1.5,2.2-1.6,5-1.6,7.6v7Z" transform="translate(0 -8.6)"/><path d="M209.5,64.2c0,1.3-.1,3.8.4,5a3.39,3.39,0,0,0,2,1.7c1.3.6,2.2,1.3,2.2,2.8,0,2.9-2.7,2.9-4.9,2.9h-9c-4.6,0-4.6-1.5-4.9-5.6-3.1,5-8.5,6.9-13.9,6.9-8.5,0-16.2-4.7-16.2-14,0-12.8,16.2-15.9,26.1-15.9h3.1c0-5.4-2.6-9.5-8.4-9.5-5.5,0-6.3,5.8-12,5.8-2.6,0-5.6-1.2-5.6-4.3,0-6.3,14.2-7.5,18.6-7.5,5,0,10.6.8,15,3.3,5.6,3.2,7.3,7.8,7.3,14.1ZM193.3,53.7c-6.4,0-12.9,3.1-12.9,10.4,0,3.4,2,6.5,5.7,6.5,3,0,5.3-1.9,6.9-4.3,2-3.1,1.9-6,1.9-9.6V53.8h-1.6v-.1Z" transform="translate(0 -8.6)"/><path d="M265.8,65.1a15.61,15.61,0,0,0,.4,4.8,6.12,6.12,0,0,0,1.7,1.5,2.62,2.62,0,0,1,1.6,2.3c0,2.1-1.6,2.8-3.4,2.8H250.9c-1.8,0-3.4-.7-3.4-2.8a2.62,2.62,0,0,1,1.6-2.3,5,5,0,0,0,1.7-1.5,19.47,19.47,0,0,0,.4-4.8V50.6c0-5-.2-10.5-6.7-10.5a7.67,7.67,0,0,0-6.9,3.7c-1.4,2.2-1.4,5-1.4,7.4v14a15.61,15.61,0,0,0,.4,4.8,6.12,6.12,0,0,0,1.7,1.5,2.62,2.62,0,0,1,1.6,2.3c0,2.1-1.6,2.8-3.4,2.8H221.3c-1.8,0-3.4-.7-3.4-2.8a2.62,2.62,0,0,1,1.6-2.3,5,5,0,0,0,1.7-1.5,19.47,19.47,0,0,0,.4-4.8V48c0-3.1.4-4.8-2.7-6.3a2.55,2.55,0,0,1-1.9-2.4c0-3.2,11.1-6.7,13.9-6.7,3.1,0,3.7,4.1,4.1,6.5,3.6-4.4,8.5-6.4,14.3-6.4,4.6,0,9.5,1.4,12.8,4.8s3.9,8.5,3.9,13V65.1Z" transform="translate(0 -8.6)"/><path d="M94.2,115.2c0,3.1.4,3.3,4.4,3.3,1.8,0,3-.1,4.3-1.5.5-.5,1.2-1.4,2-1.4a1.09,1.09,0,0,1,1.1,1,8.28,8.28,0,0,1-.7,2.7c-.4,1.3-.6,1.4-2,1.4H88.6c-.7,0-1.5-.2-1.5-1,0-.5.3-.7.7-1l.3-.2c.7-.3.5-1,.5-1.6V102.5c0-.6.1-1.3-.5-1.6l-.3-.2a1,1,0,0,1-.7-1c0-.8.8-1,1.5-1h14c.5,0,1.3-.1,1.6.4a7.1,7.1,0,0,1,.5,2.9c0,.7-.3,1.3-1.1,1.3s-1-.4-1.4-.9a3,3,0,0,0-1.9-1.2,10.12,10.12,0,0,0-3-.2,21.05,21.05,0,0,0-2.5.2,1.22,1.22,0,0,0-.8.9v5.6h4.5c2.1,0,1.8-1.1,2.8-1.1s1,1.3,1,2.1.2,2.5-1,2.5c-1,0-.8-1-2.8-1H94.2Z" transform="translate(0 -8.6)"/><path d="M119.3,107a11.39,11.39,0,0,1,4.4,1.8,5.94,5.94,0,0,1,2.2,4.5A7,7,0,0,1,123,119a10.61,10.61,0,0,1-6.7,2,15.62,15.62,0,0,1-5.7-1.1c-1.5-.7-3.6-2.3-3.6-4.1a1.56,1.56,0,0,1,1.5-1.6,2,2,0,0,1,1.7,1.1,9.14,9.14,0,0,0,2,2.4,7.58,7.58,0,0,0,3.8,1.1c2.1,0,4.6-1.1,4.6-3.5a2.53,2.53,0,0,0-1.5-2.3,16.57,16.57,0,0,0-3.8-1.1,12,12,0,0,1-4.8-1.7,5.89,5.89,0,0,1-2.6-4.8,6.72,6.72,0,0,1,2.9-5.4,10,10,0,0,1,6-1.7,13.7,13.7,0,0,1,6.6,1.6,1.42,1.42,0,0,1,.8.9,12.29,12.29,0,0,1,.2,2.7,1.08,1.08,0,0,1-1.1,1.2c-1.6,0-1.4-4.3-6.3-4.3-1.7,0-3.8,1-3.8,2.9,0,2.2,2.1,2.8,3.8,3.2Z" transform="translate(0 -8.6)"/><path d="M134.2,102.5c0-1.1.1-1.6-1.2-1.6-3.4,0-3.5,2.5-4.9,2.5a1,1,0,0,1-1.1-1v-.2c0-.3.1-.7.1-1,.1-.5.3-2.1.8-2.4a3.18,3.18,0,0,1,1.4-.2h15.4a2.74,2.74,0,0,1,1.3.2,6.81,6.81,0,0,1,.8,2.4c.1.3.1.7.2,1a1,1,0,0,1-1,1.1h-.2c-1.4,0-1.4-2.5-4.9-2.5-1.3,0-1.2.5-1.2,1.6v14.3c0,.6-.1,1.3.5,1.6l.3.2a1,1,0,0,1,.7,1c0,.8-.8,1-1.5,1H134c-.7,0-1.5-.2-1.5-1,0-.5.3-.7.7-1l.3-.2c.7-.3.5-1,.5-1.6Z" transform="translate(0 -8.6)"/><path d="M157.9,98.7c3.2,0,6,.3,8.6,2.4a10.29,10.29,0,0,1,3.9,8.5,11.49,11.49,0,0,1-3,8.1c-2.3,2.3-5.3,3-8.5,3h-9.7c-.7,0-1.5-.2-1.5-1,0-.5.3-.7.7-1l.3-.2c.7-.3.5-1,.5-1.6V102.5c0-.6.1-1.3-.5-1.6l-.3-.2a1,1,0,0,1-.7-1c0-.8.8-1,1.5-1Zm-3.1,16.9c0,2.1,0,2.9,2.3,2.9,5,0,7.5-4,7.5-8.7s-2.5-9-7.7-9c-2.1,0-2.1.7-2.1,2.6Z" transform="translate(0 -8.6)"/><path d="M174,118.7a2.62,2.62,0,0,1,2.9-2.4h0a2.61,2.61,0,0,1,2.8,2.5,2.66,2.66,0,0,1-2.8,2.4C175.5,121.1,174,120.2,174,118.7Z" transform="translate(0 -8.6)"/><path d="M451.2,114.8a3.08,3.08,0,0,1-1.9-.3,2.27,2.27,0,0,1-.6-1.6c0-1.6,1-1.7,2.2-1.7h3.8c1.5,0,2.5,0,2.5,1.8s-.9,1.9-2.4,1.9l-3.6-.1Z" transform="translate(0 -8.6)"/><path d="M461.5,121.6c-.8,0-1.8-.1-1.8-1.1,0-1.8,2.6-4.8,3.9-6.1l2.7-2.7c1.9-1.9,4.4-4.5,4.4-7.3a2.91,2.91,0,0,0-2.7-3.1h-.2c-1.5,0-3.3,1.2-3.3,2.9a2,2,0,0,0,.3,1.1,3,3,0,0,1,.4,1c0,1.1-1.3,1.6-2.2,1.6a2.56,2.56,0,0,1-2.7-2.4v-.3a5.55,5.55,0,0,1,2.6-4.4,9.79,9.79,0,0,1,5.8-1.6,9.38,9.38,0,0,1,4.9,1.2,5.31,5.31,0,0,1,2.8,4.7c0,3.1-2.4,5.5-4.6,7.5l-5.5,5.5h4.5c1.6,0,2.5,0,3.8-1.1a2.39,2.39,0,0,1,1.3-.7.86.86,0,0,1,.8.8,2,2,0,0,1-.3,1.1,9,9,0,0,0-.6,2.2c-.3,1.4-.8,1.4-2.1,1.4H461.5v-.2Z" transform="translate(0 -8.6)"/><path d="M479.5,110.3a13,13,0,0,1,2.1-7.4,8.32,8.32,0,0,1,13.9-.1,13.28,13.28,0,0,1,2.2,7.7,13.55,13.55,0,0,1-2,7.6,8.6,8.6,0,0,1-7,3.9C482.2,122,479.5,115.9,479.5,110.3Zm12.4.1c0-2.2-.1-9.2-3.4-9.2-1.8,0-2.6,2.6-3,4a32.72,32.72,0,0,0-.4,5.4c0,2.4,0,9.4,3.5,9.4C491.9,119.9,491.9,112.5,491.9,110.4Z" transform="translate(0 -8.6)"/><path d="M502.3,121.6c-.8,0-1.8-.1-1.8-1.1,0-1.8,2.6-4.8,3.9-6.1l2.7-2.7c1.9-1.9,4.4-4.5,4.4-7.3a2.91,2.91,0,0,0-2.7-3.1h-.2c-1.5,0-3.3,1.2-3.3,2.9a2,2,0,0,0,.3,1.1,3,3,0,0,1,.4,1c0,1.1-1.3,1.6-2.2,1.6a2.56,2.56,0,0,1-2.7-2.4v-.3a5.55,5.55,0,0,1,2.6-4.4,9.79,9.79,0,0,1,5.8-1.6,9.38,9.38,0,0,1,4.9,1.2,5.31,5.31,0,0,1,2.8,4.7c0,3.1-2.4,5.5-4.6,7.5l-5.5,5.4h4.5c1.7,0,2.5,0,3.8-1.1a2.39,2.39,0,0,1,1.3-.7.86.86,0,0,1,.8.8,2,2,0,0,1-.3,1.1,18,18,0,0,0-.6,2.2c-.3,1.4-.8,1.4-2.1,1.4Z" transform="translate(0 -8.6)"/><path d="M522.7,121.6c-.8,0-1.8-.1-1.8-1.1,0-1.8,2.6-4.8,3.9-6.1l2.7-2.7c1.9-1.9,4.4-4.5,4.4-7.3a2.91,2.91,0,0,0-2.7-3.1H529c-1.5,0-3.3,1.2-3.3,2.9a2,2,0,0,0,.3,1.1,3,3,0,0,1,.4,1c0,1.1-1.3,1.6-2.2,1.6a2.56,2.56,0,0,1-2.7-2.4v-.3a5.55,5.55,0,0,1,2.6-4.4,9.79,9.79,0,0,1,5.8-1.6,9.38,9.38,0,0,1,4.9,1.2,5.31,5.31,0,0,1,2.8,4.7c0,3.1-2.4,5.5-4.6,7.5l-5.5,5.4H532c1.7,0,2.5,0,3.8-1.1a2.39,2.39,0,0,1,1.3-.7.86.86,0,0,1,.8.8,2,2,0,0,1-.3,1.1,9,9,0,0,0-.6,2.2c-.3,1.4-.8,1.4-2.1,1.4Z" transform="translate(0 -8.6)"/><path d="M543,114.8a3.08,3.08,0,0,1-1.9-.3,2.27,2.27,0,0,1-.6-1.6c0-1.6,1-1.7,2.2-1.7h3.8c1.5,0,2.5,0,2.5,1.8s-.9,1.9-2.4,1.9l-3.6-.1Z" transform="translate(0 -8.6)"/><g class="cls-1"><path d="M292.17,77.94c-2.44,0-6.48.45-6.48-3.06,0-1.26.89-2,1.89-2.7,1.44-.9,2.07-1.26,2.69-2.88l3.24-10.08c3.42-10.71,8.1-20.7,12.69-31.14,2-4.5,4.14-9,6.66-13.59,1.62-3,3.24-3.15,6.57-3.15,5,0,6.12,1.08,8,5.49L345.89,60,349,69.39c.72,1.71,1.17,2,2.7,2.88a2.74,2.74,0,0,1,1.71,2.61c0,2.61-2.43,3.06-4.59,3.06H333.65c-2.07,0-5.49,0-5.49-2.88S332,72.54,332,70.47c0-1.53-3-10.44-3.6-12.42L328,56.61h-25.2c-.9,3.15-3.42,9.18-3.42,12.06,0,4,4.68,3.06,4.68,6.39s-4.68,2.88-6.93,2.88Zm33.29-28.71L325,47.79l-9.63-22.5L305.3,49.23Z" transform="translate(0 -8.6)"/><path d="M374.87,82.35a18.13,18.13,0,0,0,.45,5,3.89,3.89,0,0,0,2,1.62c1.17.63,2.16,1.26,2.16,2.7,0,2.88-2.7,2.88-4.86,2.88H360.47c-2.16,0-4.86,0-4.86-2.88,0-1.44,1-2.07,2.16-2.7a3.89,3.89,0,0,0,2-1.62,18.13,18.13,0,0,0,.45-5v-33c0-3.15.36-4.77-2.7-6.3a2.55,2.55,0,0,1-1.89-2.43c0-3.24,11.07-6.66,13.86-6.66,3.06,0,3.69,4.14,4,6.48,4-4.23,8.46-6.48,13.86-6.48,13.05,0,21.06,10,21.06,22.5,0,12.78-9.27,22.86-22,22.86-3.06,0-9.36-1.17-9.36-5.31a2.06,2.06,0,0,1,2-2.25c1.35,0,2.7.27,4.14.27A8.63,8.63,0,0,0,390,68.31c2.25-3.15,3-7.56,3-11.34,0-5.94-2.07-15.39-9.63-15.39a8,8,0,0,0-6.3,2.88c-2.07,2.34-2.16,5.67-2.16,8.55Z" transform="translate(0 -8.6)"/><path d="M432.47,82.35a18.13,18.13,0,0,0,.45,5,3.89,3.89,0,0,0,2,1.62c1.17.63,2.16,1.26,2.16,2.7,0,2.88-2.7,2.88-4.86,2.88H418.07c-2.16,0-4.86,0-4.86-2.88,0-1.44,1-2.07,2.16-2.7a3.89,3.89,0,0,0,2-1.62,18.13,18.13,0,0,0,.45-5v-33c0-3.15.36-4.77-2.7-6.3a2.55,2.55,0,0,1-1.89-2.43c0-3.24,11.07-6.66,13.86-6.66,3.06,0,3.69,4.14,4.05,6.48,4-4.23,8.46-6.48,13.86-6.48,13,0,21.06,10,21.06,22.5,0,12.78-9.27,22.86-22,22.86-3.06,0-9.36-1.17-9.36-5.31a2.06,2.06,0,0,1,2-2.25c1.35,0,2.7.27,4.14.27a8.63,8.63,0,0,0,6.75-3.69c2.25-3.15,3-7.56,3-11.34,0-5.94-2.07-15.39-9.63-15.39a8,8,0,0,0-6.3,2.88c-2.07,2.34-2.16,5.67-2.16,8.55Z" transform="translate(0 -8.6)"/><path d="M514.73,65.61c0,1.26-.09,3.78.45,5a3.66,3.66,0,0,0,2,1.71c1.26.63,2.25,1.26,2.25,2.79,0,2.88-2.7,2.88-4.86,2.88h-9c-4.59,0-4.59-1.53-4.86-5.58-3.06,5-8.46,6.93-13.95,6.93-8.46,0-16.2-4.68-16.2-14,0-12.78,16.2-15.93,26.1-15.93h3.06c0-5.4-2.61-9.45-8.37-9.45-5.49,0-6.3,5.76-12,5.76-2.61,0-5.58-1.17-5.58-4.32,0-6.3,14.22-7.47,18.63-7.47,5,0,10.62.81,15,3.33,5.58,3.24,7.29,7.83,7.29,14.13Zm-16.2-10.53c-6.39,0-12.87,3.15-12.87,10.35,0,3.42,2,6.48,5.67,6.48,3,0,5.31-1.89,6.93-4.32,2-3.15,1.89-6,1.89-9.63V55.08Z" transform="translate(0 -8.6)"/><path d="M543.26,65.79a18.13,18.13,0,0,0,.45,4.95,3.89,3.89,0,0,0,2,1.62c1.17.63,2.16,1.26,2.16,2.7,0,2.88-2.7,2.88-4.86,2.88H528.86c-2.16,0-4.86,0-4.86-2.88,0-1.44,1-2.07,2.16-2.7a3.89,3.89,0,0,0,2-1.62,18.13,18.13,0,0,0,.45-4.95V49.32c0,1.26,0-.63-.54-2.43-.54-2-1.35-2.43-3.24-3.33-1.35-.63-2.43-1.35-2.43-3,0-2.25,2.7-3.33,4.41-4.05,1.89-.72,7.47-2.61,9.45-2.61,4,0,4.68,6.39,5.13,9.36,2.16-4.41,6.57-9.36,11.79-9.36a6.5,6.5,0,0,1,6.75,6.66c0,2.79-1.62,6.21-4.77,6.21-2.34,0-4.14-1.17-6-1.17S545.78,47.34,545,49c-1.53,2.79-1.71,6.57-1.71,9.72Z" transform="translate(0 -8.6)"/><path d="M591.41,72.09c4.86,0,8.55-2.16,12.15-5.4,1.26-1.08,1.89-2,3.69-2a2.64,2.64,0,0,1,2.61,2.43c0,3.24-4.86,7-7.29,8.37a27.61,27.61,0,0,1-14.94,3.78c-12.24,0-24.21-8-24.21-21.24,0-15.12,13.05-24.12,27.09-24.12,8,0,18.45,3.69,18.45,13.14,0,6.66-6.84,10.44-12.33,12.24s-11.25,2.25-16.83,3.15C581.06,68.13,585.56,72.09,591.41,72.09Zm3.51-26c0-3.42-1.8-5.85-5.4-5.85-7.56,0-11,9.9-10.53,16.2C584.93,56,594.92,53.55,594.92,46.08Z" transform="translate(0 -8.6)"/><path d="M618.5,28.35a56.44,56.44,0,0,0-.27-6.75c-.36-1.89-1.08-2.34-2.61-3.24-1.08-.63-2.25-1.08-2.25-2.52,0-2.43,3.78-3,5.49-3.42,2.7-.9,7.83-2.61,10.62-2.61,4.23,0,3.69,6.12,3.69,8.82V65.79a18.13,18.13,0,0,0,.45,4.95,3.89,3.89,0,0,0,2,1.62c1.17.63,2.16,1.26,2.16,2.7,0,2.88-2.7,2.88-4.86,2.88H618.77c-2.16,0-4.86,0-4.86-2.88,0-1.44,1-2.07,2.16-2.7a3.89,3.89,0,0,0,2-1.62,18.13,18.13,0,0,0,.45-4.95Z" transform="translate(0 -8.6)"/></g></svg>